<?xml version="1.0" standalone="no"?>
<!DOCTYPE svg PUBLIC "-//W3C//DTD SVG 20010904//EN"
 "http://www.w3.org/TR/2001/REC-SVG-20010904/DTD/svg10.dtd">
<svg version="1.0" xmlns="http://www.w3.org/2000/svg"
 width="714.000000pt" height="714.000000pt" viewBox="0 0 714.000000 714.000000"
 preserveAspectRatio="xMidYMid meet">
<metadata>
Created by potrace 1.14, written by Peter Selinger 2001-2017
</metadata>
<g transform="translate(0.000000,714.000000) scale(0.100000,-0.100000)"
fill="#000000" stroke="none">
<path d="M3336 7119 c-172 -13 -426 -54 -610 -100 -1363 -343 -2407 -1475
-2641 -2862 -36 -218 -48 -362 -48 -602 1 -567 123 -1088 372 -1585 483 -964
1371 -1659 2421 -1893 249 -56 374 -69 698 -74 325 -6 435 1 679 42 1483 249
2660 1429 2913 2918 18 108 20 164 20 597 0 434 -2 489 -20 597 -171 999 -751
1870 -1613 2419 -638 406 -1403 598 -2171 543z m1800 -1553 c36 -36 45 -86 23
-128 -18 -33 -725 -961 -749 -983 -22 -20 -40 -20 -771 -25 l-749 -5 -32 -33
-33 -32 -5 -1389 -5 -1389 -24 -26 c-14 -14 -41 -30 -60 -36 -49 -14 -1004
-13 -1053 0 -20 6 -48 24 -62 41 l-26 31 0 1959 c0 2126 -3 1994 52 2033 20
14 200 16 1741 16 l1719 0 34 -34z m526 -503 c17 -15 18 -83 18 -1763 0 -1492
-2 -1749 -14 -1766 -14 -19 -39 -19 -1148 -21 -895 -2 -1138 0 -1158 10 l-25
13 -3 339 c-2 337 -2 340 19 358 20 16 71 17 762 17 675 0 742 1 759 17 17 15
18 58 18 938 l0 921 351 477 c304 413 355 477 377 477 14 0 34 -7 44 -17z"/>
</g>
</svg>
