<svg width="17" height="17" viewBox="0 0 17 17" fill="none" xmlns="http://www.w3.org/2000/svg">
<path d="M8.27896 2.04226C10.3944 2.04226 10.645 2.05031 11.4804 2.08842C12.2529 2.12368 12.6724 2.25274 12.9516 2.36121C13.3214 2.50493 13.5853 2.67664 13.8626 2.95386C14.1398 3.23108 14.3115 3.49502 14.4552 3.8648C14.5637 4.144 14.6928 4.56349 14.728 5.3359C14.7661 6.17133 14.7742 6.42188 14.7742 8.5373C14.7742 10.6527 14.7661 10.9033 14.728 11.7387C14.6928 12.5111 14.5637 12.9306 14.4552 13.2098C14.3115 13.5796 14.1398 13.8435 13.8626 14.1207C13.5853 14.398 13.3214 14.5697 12.9516 14.7133C12.6724 14.8218 12.2529 14.9509 11.4804 14.9862C10.6451 15.0243 10.3946 15.0323 8.27896 15.0323C6.16335 15.0323 5.91279 15.0243 5.07749 14.9862C4.30503 14.9509 3.88552 14.8218 3.60635 14.7133C3.23653 14.5697 2.97258 14.398 2.69535 14.1207C2.41812 13.8435 2.24641 13.5796 2.10272 13.2098C1.99422 12.9306 1.86515 12.5111 1.82989 11.7387C1.79178 10.9033 1.78372 10.6527 1.78372 8.5373C1.78372 6.42188 1.79178 6.17133 1.82989 5.33593C1.86515 4.56349 1.99422 4.144 2.10272 3.8648C2.24641 3.49502 2.41812 3.23108 2.69535 2.95386C2.97258 2.67664 3.23653 2.50493 3.60635 2.36121C3.88552 2.25274 4.30503 2.12368 5.07746 2.08842C5.91292 2.05031 6.16347 2.04226 8.27896 2.04226ZM8.27896 0.614746C6.12724 0.614746 5.85747 0.623866 5.01242 0.662422C4.1691 0.700915 3.5932 0.834823 3.08922 1.03068C2.56823 1.23315 2.1264 1.50405 1.68595 1.94448C1.2455 2.38492 0.974592 2.82674 0.772121 3.34772C0.576253 3.85168 0.442341 4.42757 0.403847 5.27086C0.36529 6.11585 0.356201 6.38565 0.356201 8.5373C0.356201 10.6889 0.36529 10.9587 0.403847 11.8037C0.442341 12.647 0.576253 13.2229 0.772121 13.7269C0.974592 14.2478 1.2455 14.6897 1.68595 15.1301C2.1264 15.5705 2.56823 15.8414 3.08922 16.0439C3.5932 16.2398 4.1691 16.3737 5.01242 16.4122C5.85747 16.4507 6.12724 16.4598 8.27896 16.4598C10.4307 16.4598 10.7005 16.4507 11.5455 16.4122C12.3888 16.3737 12.9647 16.2398 13.4687 16.0439C13.9897 15.8414 14.4315 15.5705 14.872 15.1301C15.3124 14.6897 15.5833 14.2478 15.7858 13.7269C15.9817 13.2229 16.1156 12.647 16.1541 11.8037C16.1926 10.9587 16.2017 10.6889 16.2017 8.5373C16.2017 6.38565 16.1926 6.11585 16.1541 5.27086C16.1156 4.42757 15.9817 3.85168 15.7858 3.34772C15.5833 2.82674 15.3124 2.38492 14.872 1.94448C14.4315 1.50405 13.9897 1.23315 13.4687 1.03068C12.9647 0.834823 12.3888 0.700915 11.5455 0.662422C10.7005 0.623866 10.4307 0.614746 8.27896 0.614746ZM8.27896 4.46895C6.03202 4.46895 4.21049 6.29042 4.21049 8.5373C4.21049 10.7842 6.03202 12.6056 8.27896 12.6056C10.5259 12.6056 12.3474 10.7842 12.3474 8.5373C12.3474 6.29042 10.5259 4.46895 8.27896 4.46895ZM8.27896 11.1782C6.82042 11.1782 5.63802 9.99578 5.63802 8.5373C5.63802 7.07881 6.82042 5.89644 8.27896 5.89644C9.73749 5.89644 10.9199 7.07881 10.9199 8.5373C10.9199 9.99578 9.73749 11.1782 8.27896 11.1782ZM13.4589 4.30822C13.4589 4.83329 13.0332 5.25894 12.5082 5.25894C11.9831 5.25894 11.5574 4.83329 11.5574 4.30822C11.5574 3.78316 11.9831 3.35753 12.5082 3.35753C13.0332 3.35753 13.4589 3.78316 13.4589 4.30822Z" fill="white"/>
</svg>
