<svg width="45" height="51" viewBox="0 0 45 51" fill="none" xmlns="http://www.w3.org/2000/svg">
<path d="M26.9191 8.22366C27.3957 7.41843 27.6699 6.48629 27.6699 5.49237C27.6699 2.46393 25.1367 0 22.023 0C18.9092 0 16.3761 2.46393 16.3761 5.49237C16.3761 6.48629 16.6502 7.41843 17.1269 8.22366C7.3321 10.3948 0 18.9347 0 29.1097C0 40.9208 9.87956 50.53 22.023 50.53C34.1664 50.53 44.0459 40.9208 44.0459 29.1097C44.046 18.9347 36.714 10.3948 26.9191 8.22366ZM38.6191 20.8711C39.678 22.8808 40.3608 25.1073 40.5801 27.462H33.8477C33.7546 25.1705 33.4677 22.9501 33.0025 20.8711H38.6191ZM36.3872 17.5757H32.0745C31.4703 15.8275 30.679 14.1065 29.6699 12.582C32.2848 13.7309 34.58 15.4502 36.3872 17.5757ZM30.4568 27.462H23.7171V20.8711H29.5294C30.0399 22.9157 30.3552 25.1423 30.4568 27.462ZM28.473 17.5757H23.7171V11.3949C25.9605 12.4742 27.5548 15.2891 28.473 17.5757ZM14.376 12.582C13.3668 14.1066 12.5755 15.8277 11.9714 17.5757H7.65872C9.46607 15.4502 11.7613 13.7309 14.376 12.582ZM5.42693 20.8711H11.0435C10.5784 22.95 10.2914 25.1705 10.1984 27.462H3.46595C3.68512 25.1074 4.36801 22.8809 5.42693 20.8711ZM5.42693 37.3483C4.36801 35.3385 3.68523 33.112 3.46595 30.7574H10.1984C10.2914 33.0488 10.5784 35.2692 11.0435 37.3483H5.42693ZM7.65882 40.6437H11.9715C12.5758 42.3918 13.367 44.1129 14.3761 45.6374C11.7613 44.4884 9.46607 42.7691 7.65882 40.6437ZM20.329 46.8244C18.0856 45.7451 16.4912 42.9304 15.573 40.6438H20.329V46.8244ZM20.329 37.3483H14.5167C14.0062 35.3036 13.6907 33.0771 13.5892 30.7574H20.329V37.3483ZM20.329 27.462H13.5892C13.6908 25.1423 14.0062 22.9158 14.5168 20.8711H20.329V27.462ZM20.329 17.5757H15.573C16.4893 15.2938 18.0853 12.4744 20.329 11.3949V17.5757ZM22.023 7.68934C20.7775 7.68934 19.7642 6.70381 19.7642 5.49237C19.7642 4.28094 20.7775 3.2954 22.023 3.2954C23.2685 3.2954 24.2818 4.28094 24.2818 5.49237C24.2818 6.70381 23.2685 7.68934 22.023 7.68934ZM23.7171 46.8244V40.6438H28.473C27.5567 42.9255 25.9609 45.7449 23.7171 46.8244ZM23.7171 37.3483V30.7574H30.4568C30.3552 33.077 30.0399 35.3035 29.5293 37.3483H23.7171ZM29.6699 45.6374C30.6791 44.1129 31.4704 42.3916 32.0745 40.6437H36.3872C34.58 42.7691 32.2848 44.4884 29.6699 45.6374ZM38.6191 37.3483H33.0025C33.4676 35.2693 33.7546 33.0488 33.8477 30.7574H40.5801C40.3608 33.1119 39.678 35.3385 38.6191 37.3483Z" fill="#EFE16C"/>
</svg>
