<svg width="44" height="44" viewBox="0 0 44 44" fill="none" xmlns="http://www.w3.org/2000/svg">
<g clip-path="url(#clip0_46_1351)">
<path d="M22.0505 43.6172C21.8542 43.6166 21.6594 43.5831 21.4741 43.5182C20.4533 43.1662 20.3169 42.1982 20.2729 41.8748C20.0771 40.4756 19.8659 38.9818 19.6129 37.3208C19.5377 37.2708 19.4696 37.2108 19.4105 37.1426C19.2103 36.9116 19.0013 36.6828 18.7835 36.4452C18.6185 36.718 18.4579 36.9798 18.3017 37.235C18.0069 37.7124 17.7231 38.1788 17.4217 38.6936C17.2479 38.9818 16.7199 39.8618 15.7519 39.8618C15.2437 39.8618 14.7487 39.6154 14.2405 39.105C11.0901 35.9546 7.94042 32.8013 4.79149 29.645C4.57149 29.425 3.93349 28.7848 4.03689 27.9466C4.14029 27.1084 4.93889 26.6266 5.20069 26.466C5.77049 26.1228 6.31609 25.839 6.84409 25.564L7.50409 25.2186C7.31709 25.025 7.13449 24.8358 6.94749 24.6488H6.92329C6.08289 24.5278 5.29309 24.354 4.52749 24.189C3.76189 24.024 2.97429 23.8502 2.16249 23.749C1.84349 23.705 0.871088 23.5708 0.516888 22.5566C0.270488 21.857 0.457488 21.1926 1.06909 20.5766C1.76869 19.8755 2.46902 19.1767 3.17009 18.48C4.82229 16.8278 6.52949 15.1184 8.23009 13.4486C8.61605 13.0752 9.11063 12.8341 9.64249 12.76C10.8899 12.6082 12.0955 12.5202 13.2637 12.4366C14.4319 12.353 15.5781 12.2672 16.7837 12.1242C16.917 12.0993 17.041 12.0385 17.1423 11.9482C18.4623 10.6744 19.8439 9.3082 21.1727 7.9244C23.4497 5.5418 26.2965 3.7444 29.8759 2.4244C33.4025 1.122 37.2481 0.3322 41.6195 0.0176L41.9033 0H42.0419C42.6887 0 43.1903 0.1848 43.5313 0.55C43.8723 0.9152 44.0351 1.43 43.9933 2.1164C43.8378 5.0014 43.3957 7.86377 42.6733 10.6612C41.6327 14.6058 40.3017 17.6 38.4933 20.0772C37.8825 20.9029 37.215 21.685 36.4957 22.418C35.7213 23.2188 34.9227 24.0152 34.1505 24.7874C33.4663 25.4694 32.7557 26.1778 32.0715 26.8818C31.9806 26.982 31.9189 27.1053 31.8933 27.2382C31.7503 28.4174 31.6733 29.5812 31.5853 30.7032C31.4995 31.8714 31.4137 33.077 31.2597 34.3244C31.1849 34.9316 30.6701 35.7016 30.3467 36.0316C28.6615 37.7476 27.0885 39.3184 25.4253 40.9816L23.4453 42.9616C23.2692 43.1595 23.0549 43.3197 22.8151 43.4324C22.5754 43.5451 22.3152 43.608 22.0505 43.6172ZM20.6073 33.2772C23.2759 30.7186 26.5055 27.4824 29.3787 24.6048C30.9803 22.9988 32.4939 21.483 33.7413 20.2532C35.7521 18.2732 37.2613 15.8158 38.3459 12.76C36.0953 10.4874 33.7127 8.1004 31.2531 5.6584C28.2501 6.7298 25.9027 8.14 24.0811 9.9638L10.6985 23.353L20.6073 33.2772Z" fill="#F0A450"/>
<path d="M1.45896 44C1.20484 44.0079 0.953046 43.9494 0.728485 43.8302C0.503924 43.7109 0.314369 43.5352 0.178561 43.3202C0.0683861 43.1401 0.00718067 42.9343 0.00100662 42.7232C-0.00516742 42.5121 0.0439041 42.3031 0.143361 42.1168C0.273528 41.892 0.435843 41.6875 0.625161 41.5096C2.14316 39.9894 3.02096 39.1204 3.93616 38.2096C4.75016 37.4022 5.59496 36.564 6.95016 35.2088C7.39016 34.7688 7.80816 34.5488 8.21956 34.5488C8.54428 34.5679 8.85051 34.7063 9.0795 34.9373C9.30849 35.1683 9.44412 35.4758 9.46036 35.8006C9.46036 36.2098 9.24036 36.6234 8.80036 37.0612C7.12176 38.7442 6.22416 39.6308 5.18796 40.656C4.44876 41.3886 3.64796 42.185 2.43356 43.3884C2.25182 43.5578 2.051 43.7054 1.83516 43.8284C1.78236 43.8614 1.73396 43.89 1.69656 43.9164L1.58656 43.9956L1.45896 44Z" fill="#F0A450"/>
<path d="M1.46504 43.5599C0.670839 43.5599 0.230839 42.8713 0.525639 42.3147C0.63522 42.1279 0.771604 41.9582 0.930439 41.8109C3.80144 38.9399 4.38224 38.3943 7.25984 35.5211C7.86044 34.9205 8.35984 34.8303 8.77344 35.2417C9.18704 35.6531 9.11004 36.1569 8.51384 36.7553C5.62744 39.6439 5.03784 40.2027 2.14484 43.0803C1.93453 43.2621 1.70683 43.4228 1.46504 43.5599V43.5599Z" fill="#F0A450"/>
<path d="M6.86211 43.5381C6.60967 43.5395 6.36116 43.4756 6.14069 43.3526C5.92021 43.2296 5.73524 43.0518 5.60371 42.8363C5.49571 42.6528 5.4373 42.4444 5.43421 42.2314C5.43113 42.0185 5.48347 41.8085 5.58611 41.6219C5.69987 41.4278 5.84061 41.2507 6.00411 41.0961C6.88411 40.2029 7.35491 39.7519 7.84551 39.2745C8.28552 38.8565 8.72552 38.4187 9.50432 37.6399C9.67172 37.4571 9.867 37.3019 10.0829 37.1801C10.2647 37.0839 10.4669 37.0326 10.6725 37.0305C10.8496 37.0337 11.024 37.0746 11.1841 37.1505C11.3442 37.2264 11.4863 37.3355 11.6009 37.4705C11.7998 37.6702 11.924 37.9321 11.9528 38.2125C11.9817 38.4928 11.9134 38.7745 11.7593 39.0105C11.6514 39.1838 11.5221 39.3427 11.3743 39.4835C10.3909 40.4691 9.91792 40.9289 9.37012 41.4635C8.97412 41.8485 8.53412 42.2775 7.83012 42.9727C7.65168 43.1376 7.45278 43.2788 7.23832 43.3929C7.18992 43.4215 7.14591 43.4457 7.11071 43.4699L6.99631 43.5447L6.86211 43.5381Z" fill="#F0A450"/>
<path d="M6.87023 43.1024C6.08043 43.0848 5.66243 42.3852 5.96603 41.8308C6.06018 41.6727 6.17566 41.5283 6.30923 41.4018C7.97684 39.7298 8.13744 39.6154 9.80944 37.9478C9.94647 37.8008 10.1044 37.6748 10.278 37.5738C10.4413 37.4822 10.6318 37.4517 10.8156 37.4875C10.9993 37.5234 11.1644 37.6234 11.2812 37.7696C11.4143 37.9008 11.4975 38.0743 11.5163 38.2603C11.5352 38.4462 11.4886 38.6329 11.3846 38.7882C11.2939 38.9287 11.1868 39.0579 11.0656 39.1732C9.38704 40.8562 9.21764 40.986 7.52583 42.658C7.32455 42.8301 7.10465 42.9792 6.87023 43.1024V43.1024Z" fill="#F0A450"/>
<path d="M1.85284 38.5264C1.60039 38.5277 1.35189 38.4638 1.13141 38.3409C0.910932 38.2179 0.725963 38.0401 0.594437 37.8246C0.486433 37.6411 0.428019 37.4326 0.424934 37.2197C0.421848 37.0068 0.474196 36.7968 0.576837 36.6102C0.690247 36.4145 0.830998 36.236 0.994837 36.08C1.87484 35.1868 2.34784 34.7358 2.83624 34.2584C3.26524 33.8404 3.71624 33.4026 4.49724 32.6238C4.66451 32.4441 4.85902 32.2919 5.07364 32.1728C5.25542 32.0766 5.45758 32.0253 5.66324 32.0232C5.84038 32.0263 6.01483 32.0671 6.17493 32.143C6.33503 32.2189 6.4771 32.328 6.59164 32.4632C6.79047 32.6628 6.91486 32.9246 6.94409 33.2048C6.97331 33.4851 6.9056 33.7668 6.75224 34.0032C6.64424 34.177 6.51408 34.336 6.36504 34.4762C5.38164 35.4618 4.90864 35.9238 4.35864 36.4562C3.96484 36.839 3.52484 37.268 2.81864 37.9632C2.63947 38.1282 2.43983 38.2694 2.22464 38.3834C2.17624 38.412 2.13224 38.4362 2.09704 38.4604L1.98484 38.5352L1.85284 38.5264Z" fill="#F0A450"/>
<path d="M1.86096 38.0909C1.07116 38.0733 0.653157 37.3737 0.956757 36.8193C1.05006 36.6573 1.16558 36.5092 1.29996 36.3793C2.96756 34.7051 3.13036 34.5929 4.80236 32.9253C4.94177 32.7797 5.10279 32.6565 5.27976 32.56C5.4426 32.4682 5.63288 32.4375 5.81636 32.4733C5.99985 32.5092 6.16452 32.6094 6.28076 32.7558C6.41383 32.8871 6.49697 33.0606 6.51585 33.2465C6.53472 33.4325 6.48815 33.6192 6.38416 33.7745C6.29475 33.9159 6.18754 34.0453 6.06516 34.1595C4.38656 35.8425 4.21716 35.9723 2.52536 37.6443C2.32218 37.8187 2.09918 37.9686 1.86096 38.0909V38.0909Z" fill="#F0A450"/>
<path d="M27.9974 21.8196C26.483 21.8091 25.0346 21.1985 23.9697 20.1217C22.9049 19.0449 22.3105 17.5898 22.3169 16.0754C22.3243 14.9489 22.665 13.8497 23.2959 12.9165C23.9269 11.9832 24.82 11.2576 25.8626 10.831C26.9052 10.4044 28.0508 10.2959 29.155 10.5193C30.2592 10.7426 31.2726 11.2878 32.0675 12.086C32.8624 12.8843 33.4032 13.8999 33.6219 15.0051C33.8406 16.1102 33.7273 17.2553 33.2963 18.2961C32.8653 19.3369 32.1359 20.2269 31.2 20.854C30.264 21.481 29.1635 21.817 28.037 21.8196H27.9974Z" fill="#F0A450"/>
<path d="M20.3102 30.4789C20.3051 30.7058 20.2126 30.922 20.0519 31.0823C19.8911 31.2426 19.6747 31.3346 19.4478 31.3391C19.3301 31.3439 19.2127 31.3247 19.1027 31.2827C18.9927 31.2408 18.8924 31.1769 18.8078 31.095C18.7233 31.0131 18.6562 30.9148 18.6108 30.8062C18.5653 30.6976 18.5424 30.5808 18.5435 30.4631C18.5445 30.3454 18.5695 30.2291 18.6169 30.1213C18.6642 30.0135 18.733 29.9164 18.819 29.836C18.905 29.7556 19.0065 29.6935 19.1172 29.6535C19.2279 29.6135 19.3456 29.5964 19.4632 29.6033C19.69 29.6118 19.9048 29.7077 20.0627 29.8708C20.2205 30.034 20.3092 30.2519 20.3102 30.4789Z" fill="#F0A450"/>
</g>
<defs>
<clipPath id="clip0_46_1351">
<rect width="44" height="44" fill="white"/>
</clipPath>
</defs>
</svg>
