<svg width="50" height="51" viewBox="0 0 50 51" fill="none" xmlns="http://www.w3.org/2000/svg">
<g filter="url(#filter0_d_97_155)">
<path d="M17.4722 17.6147H30.4083C30.7987 17.6147 31.0205 18.0615 30.7845 18.3725L28.0352 21.9945C27.9459 22.1121 27.8068 22.1812 27.6591 22.1812H22.2588C21.998 22.1812 21.7865 22.3926 21.7865 22.6534V32.9876C21.7865 33.2484 21.5751 33.4598 21.3143 33.4598H17.4722C17.2114 33.4598 17 33.2484 17 32.9876V18.087C17 17.8262 17.2114 17.6147 17.4722 17.6147Z" fill="white"/>
<path d="M32.6089 33.46H23.953C23.8226 33.46 23.7169 33.3543 23.7169 33.2238V30.8352C23.7169 30.7048 23.8226 30.599 23.953 30.599H29.5279C29.6583 30.599 29.764 30.4933 29.764 30.3629V23.4143C29.764 23.3639 29.7801 23.3148 29.81 23.2742L32.4188 19.7338C32.554 19.5503 32.845 19.6459 32.845 19.8738V33.2238C32.845 33.3543 32.7393 33.46 32.6089 33.46Z" fill="white"/>
</g>
<defs>
<filter id="filter0_d_97_155" x="0" y="0.614746" width="49.845" height="49.8452" filterUnits="userSpaceOnUse" color-interpolation-filters="sRGB">
<feFlood flood-opacity="0" result="BackgroundImageFix"/>
<feColorMatrix in="SourceAlpha" type="matrix" values="0 0 0 0 0 0 0 0 0 0 0 0 0 0 0 0 0 0 127 0" result="hardAlpha"/>
<feMorphology radius="2" operator="dilate" in="SourceAlpha" result="effect1_dropShadow_97_155"/>
<feOffset/>
<feGaussianBlur stdDeviation="7.5"/>
<feComposite in2="hardAlpha" operator="out"/>
<feColorMatrix type="matrix" values="0 0 0 0 0 0 0 0 0 0 0 0 0 0 0 0 0 0 0.25 0"/>
<feBlend mode="normal" in2="BackgroundImageFix" result="effect1_dropShadow_97_155"/>
<feBlend mode="normal" in="SourceGraphic" in2="effect1_dropShadow_97_155" result="shape"/>
</filter>
</defs>
</svg>
