<svg width="27" height="17" viewBox="0 0 27 17" fill="none" xmlns="http://www.w3.org/2000/svg">
<path d="M15.1272 8.5379C15.1272 12.9133 11.9437 16.4603 8.01695 16.4603C4.09018 16.4603 0.906494 12.9133 0.906494 8.5379C0.906494 4.16247 4.08994 0.615234 8.01695 0.615234C11.944 0.615234 15.1272 4.16247 15.1272 8.5379Z" fill="white"/>
<path d="M22.9274 8.53769C22.9274 12.6562 21.3356 15.9963 19.3721 15.9963C17.4086 15.9963 15.8169 12.6562 15.8169 8.53769C15.8169 4.41916 17.4084 1.0791 19.3719 1.0791C21.3354 1.0791 22.9271 4.41809 22.9271 8.53769" fill="white"/>
<path d="M26.118 8.53768C26.118 12.2269 25.5582 15.2194 24.8676 15.2194C24.1769 15.2194 23.6174 12.2277 23.6174 8.53768C23.6174 4.84768 24.1772 1.85596 24.8676 1.85596C25.558 1.85596 26.118 4.84741 26.118 8.53768Z" fill="white"/>
</svg>
