<svg width="62" height="62" viewBox="0 0 62 62" fill="none" xmlns="http://www.w3.org/2000/svg">
<g clip-path="url(#clip0_528_501)">
<path d="M31.0707 61.4606C30.7941 61.4597 30.5196 61.4126 30.2585 61.3211C28.8201 60.8251 28.6279 59.4611 28.5659 59.0054C28.29 57.0338 27.9924 54.9289 27.6359 52.5884C27.53 52.5179 27.4341 52.4334 27.3507 52.3373C27.0686 52.0118 26.7741 51.6894 26.4672 51.3546C26.2347 51.739 26.0084 52.1079 25.7883 52.4675C25.3729 53.1402 24.973 53.7974 24.5483 54.5228C24.3034 54.9289 23.5594 56.1689 22.1954 56.1689C21.4793 56.1689 20.7818 55.8217 20.0657 55.1025C15.6265 50.6633 11.1884 46.22 6.75122 41.7725C6.44122 41.4625 5.54222 40.5604 5.68792 39.3793C5.83362 38.1982 6.95892 37.5193 7.32782 37.293C8.13072 36.8094 8.89952 36.4095 9.64352 36.022L10.5735 35.5353C10.31 35.2625 10.0527 34.9959 9.78922 34.7324H9.75512C8.57092 34.5619 7.45802 34.317 6.37922 34.0845C5.30042 33.852 4.19062 33.6071 3.04672 33.4645C2.59722 33.4025 1.22702 33.2134 0.727921 31.7843C0.380721 30.7985 0.644221 29.8623 1.50602 28.9943C2.49182 28.0064 3.47865 27.0217 4.46652 26.04C6.79462 23.7119 9.20022 21.3032 11.5965 18.9503C12.1404 18.4242 12.8373 18.0844 13.5867 17.98C15.3444 17.7661 17.0432 17.6421 18.6893 17.5243C20.3354 17.4065 21.9505 17.2856 23.6493 17.0841C23.8372 17.0491 24.012 16.9633 24.1546 16.8361C26.0146 15.0412 27.9614 13.1161 29.8338 11.1662C33.0423 7.8089 37.0537 5.2762 42.0974 3.4162C47.0667 1.581 52.4855 0.4681 58.6452 0.0248L59.0451 0H59.2404C60.1518 0 60.8586 0.2604 61.3391 0.775C61.8196 1.2896 62.049 2.015 61.9901 2.9822C61.7711 7.04743 61.148 11.0808 60.1301 15.0226C58.6638 20.5809 56.7883 24.8 54.2401 28.2906C53.3795 29.454 52.439 30.5562 51.4253 31.589C50.3341 32.7174 49.2088 33.8396 48.1207 34.9277C47.1566 35.8887 46.1553 36.8869 45.1912 37.8789C45.0631 38.0202 44.9763 38.1939 44.9401 38.3811C44.7386 40.0427 44.6301 41.6826 44.5061 43.2636C44.3852 44.9097 44.2643 46.6085 44.0473 48.3662C43.9419 49.2218 43.2165 50.3068 42.7608 50.7718C40.3862 53.1898 38.1697 55.4032 35.8261 57.7468L33.0361 60.5368C32.788 60.8157 32.486 61.0414 32.1481 61.2002C31.8103 61.359 31.4438 61.4476 31.0707 61.4606ZM29.0371 46.8906C32.7974 43.2853 37.3482 38.7252 41.3968 34.6704C43.6536 32.4074 45.7864 30.2715 47.5441 28.5386C50.3775 25.7486 52.5041 22.2859 54.0324 17.98C50.8611 14.7777 47.5038 11.4142 44.038 7.9732C39.8065 9.4829 36.4988 11.47 33.932 14.0399L15.0747 32.9065L29.0371 46.8906Z" fill="#6CEFD7"/>
<path d="M2.05512 62.0002C1.69704 62.0114 1.34224 61.9289 1.02581 61.7609C0.709387 61.5929 0.442287 61.3452 0.250921 61.0423C0.0956742 60.7885 0.00943018 60.4985 0.000730392 60.2011C-0.0079694 59.9036 0.0611768 59.6091 0.201321 59.3466C0.384738 59.0299 0.613454 58.7416 0.880221 58.491C3.01922 56.3489 4.25612 55.1244 5.54572 53.841C6.69272 52.7033 7.88312 51.5222 9.79272 49.6126C10.4127 48.9926 11.0017 48.6826 11.5814 48.6826C12.039 48.7095 12.4705 48.9045 12.7932 49.23C13.1158 49.5555 13.3069 49.9887 13.3298 50.4465C13.3298 51.0231 13.0198 51.6059 12.3998 52.2228C10.0345 54.5943 8.76972 55.8436 7.30962 57.2882C6.26802 58.3205 5.13962 59.4427 3.42842 61.1384C3.17233 61.3771 2.88936 61.5851 2.58522 61.7584C2.51082 61.8049 2.44262 61.8452 2.38992 61.8824L2.23492 61.994L2.05512 62.0002Z" fill="#6CEFD7"/>
<path d="M2.06473 61.3801C0.945627 61.3801 0.325628 60.4098 0.741028 59.6255C0.895438 59.3622 1.08762 59.123 1.31143 58.9156C5.35693 54.8701 6.17533 54.1013 10.2301 50.0527C11.0764 49.2064 11.7801 49.0793 12.3629 49.659C12.9457 50.2387 12.8372 50.9486 11.9971 51.7918C7.92993 55.8621 7.09913 56.6495 3.02263 60.7043C2.72628 60.9604 2.40543 61.1868 2.06473 61.3801Z" fill="#6CEFD7"/>
<path d="M9.66945 61.349C9.31374 61.3509 8.96357 61.2608 8.6529 61.0876C8.34222 60.9143 8.08159 60.6637 7.89625 60.3601C7.74407 60.1015 7.66176 59.8078 7.65741 59.5078C7.65306 59.2078 7.72682 58.9118 7.87145 58.6489C8.03175 58.3753 8.23006 58.1259 8.46045 57.908C9.70045 56.6494 10.3639 56.0139 11.0552 55.3412C11.6752 54.7522 12.2952 54.1353 13.3926 53.0379C13.6284 52.7803 13.9036 52.5616 14.2079 52.39C14.464 52.2545 14.7489 52.1822 15.0387 52.1792C15.2882 52.1837 15.534 52.2414 15.7595 52.3483C15.9851 52.4552 16.1853 52.6089 16.3469 52.7992C16.6271 53.0806 16.8021 53.4497 16.8427 53.8447C16.8834 54.2397 16.7871 54.6367 16.5701 54.9692C16.418 55.2134 16.2358 55.4373 16.0276 55.6357C14.6419 57.0245 13.9754 57.6724 13.2035 58.4257C12.6455 58.9682 12.0255 59.5727 11.0335 60.5523C10.782 60.7846 10.5018 60.9836 10.1996 61.1444C10.1314 61.1847 10.0694 61.2188 10.0198 61.2529L9.85855 61.3583L9.66945 61.349Z" fill="#6CEFD7"/>
<path d="M9.68067 60.7355C8.56777 60.7107 7.97877 59.7249 8.40657 58.9437C8.53923 58.7209 8.70196 58.5175 8.89017 58.3392C11.24 55.9832 11.4663 55.822 13.8223 53.4721C14.0154 53.2651 14.2378 53.0875 14.4826 52.9451C14.7127 52.8161 14.9811 52.7731 15.24 52.8236C15.4989 52.8741 15.7315 53.015 15.8962 53.221C16.0837 53.4059 16.2008 53.6505 16.2274 53.9125C16.254 54.1745 16.1884 54.4375 16.0419 54.6563C15.914 54.8543 15.7631 55.0364 15.5924 55.1988C13.2271 57.5704 12.9884 57.7533 10.6045 60.1093C10.3208 60.3518 10.011 60.5618 9.68067 60.7355Z" fill="#6CEFD7"/>
<path d="M2.60988 54.2871C2.25417 54.289 1.904 54.199 1.59333 54.0257C1.28265 53.8525 1.02202 53.6019 0.836684 53.2982C0.684496 53.0397 0.602186 52.7459 0.597838 52.4459C0.59349 52.1459 0.667253 51.8499 0.811884 51.587C0.971688 51.3113 1.17002 51.0597 1.40088 50.8399C2.64088 49.5813 3.30738 48.9458 3.99558 48.2731C4.60008 47.6841 5.23558 47.0672 6.33608 45.9698C6.57179 45.7167 6.84588 45.5022 7.14828 45.3343C7.40444 45.1988 7.6893 45.1265 7.97908 45.1235C8.2287 45.1279 8.47451 45.1854 8.70011 45.2923C8.9257 45.3992 9.12589 45.5531 9.28728 45.7435C9.56745 46.0248 9.74274 46.3937 9.78392 46.7885C9.8251 47.1834 9.72969 47.5805 9.51358 47.9135C9.3614 48.1584 9.17799 48.3825 8.96798 48.58C7.58228 49.9688 6.91578 50.6198 6.14078 51.37C5.58588 51.9094 4.96588 52.5139 3.97078 53.4935C3.71832 53.726 3.43701 53.925 3.13378 54.0856C3.06558 54.1259 3.00358 54.16 2.95398 54.1941L2.79588 54.2995L2.60988 54.2871Z" fill="#6CEFD7"/>
<path d="M2.62208 53.6732C1.50918 53.6484 0.92018 52.6626 1.34798 51.8814C1.47945 51.6532 1.64223 51.4445 1.83158 51.2614C4.18138 48.9023 4.41078 48.7442 6.76678 46.3944C6.96322 46.1893 7.19012 46.0157 7.43948 45.8798C7.66895 45.7504 7.93706 45.7071 8.19561 45.7576C8.45416 45.8082 8.68619 45.9494 8.84998 46.1557C9.0375 46.3406 9.15465 46.5851 9.18124 46.8471C9.20784 47.1091 9.14222 47.3722 8.99568 47.591C8.8697 47.7904 8.71863 47.9727 8.54618 48.1335C6.18088 50.505 5.94218 50.6879 3.55828 53.0439C3.27199 53.2897 2.95776 53.5009 2.62208 53.6732Z" fill="#6CEFD7"/>
<path d="M39.4506 30.7456C37.3167 30.7309 35.2757 29.8705 33.7753 28.3532C32.2748 26.8359 31.4373 24.7854 31.4464 22.6515C31.4568 21.0642 31.9368 19.5154 32.8258 18.2003C33.7149 16.8853 34.9733 15.8628 36.4425 15.2617C37.9117 14.6606 39.5259 14.5078 41.0818 14.8225C42.6377 15.1372 44.0656 15.9053 45.1857 17.0301C46.3058 18.155 47.0679 19.5861 47.3761 21.1433C47.6842 22.7005 47.5245 24.3141 46.9172 25.7807C46.3099 27.2473 45.2821 28.5014 43.9633 29.3849C42.6445 30.2685 41.0938 30.7419 39.5064 30.7456H39.4506Z" fill="#6CEFD7"/>
<path d="M28.6184 42.9476C28.6112 43.2673 28.4808 43.572 28.2544 43.7978C28.0279 44.0237 27.723 44.1533 27.4032 44.1597C27.2374 44.1664 27.072 44.1394 26.917 44.0803C26.762 44.0211 26.6206 43.9311 26.5014 43.8157C26.3823 43.7002 26.2878 43.5618 26.2238 43.4087C26.1597 43.2557 26.1275 43.0912 26.129 42.9253C26.1304 42.7594 26.1656 42.5955 26.2323 42.4436C26.2991 42.2917 26.396 42.155 26.5172 42.0417C26.6384 41.9284 26.7813 41.8409 26.9374 41.7845C27.0934 41.7282 27.2593 41.7041 27.4249 41.7138C27.7446 41.7258 28.0472 41.8608 28.2696 42.0908C28.4921 42.3207 28.617 42.6277 28.6184 42.9476Z" fill="#6CEFD7"/>
</g>
<defs>
<clipPath id="clip0_528_501">
<rect width="62" height="62" fill="white"/>
</clipPath>
</defs>
</svg>
