<svg width="20" height="16" viewBox="0 0 20 16" fill="none" xmlns="http://www.w3.org/2000/svg">
<path fill-rule="evenodd" clip-rule="evenodd" d="M14.6348 15.72C14.7596 15.812 14.9055 15.8713 15.0591 15.8925C15.2126 15.9137 15.3691 15.8962 15.5142 15.8415C15.6592 15.7869 15.7884 15.6968 15.8898 15.5795C15.9912 15.4623 16.0617 15.3215 16.0948 15.17C16.7848 11.92 18.4548 3.71004 19.0948 0.760043C19.1192 0.649774 19.1135 0.534974 19.0783 0.427659C19.0431 0.320343 18.9798 0.224459 18.8948 0.150043C18.8071 0.0772052 18.7019 0.0287003 18.5895 0.00939334C18.4772 -0.00991359 18.3618 0.000656638 18.2548 0.0400435C14.9148 1.28004 4.65481 5.13004 0.454808 6.68004C0.322907 6.72157 0.207686 6.80408 0.125894 6.91558C0.0441015 7.02708 0 7.16176 0 7.30004C0 7.43833 0.0441015 7.57301 0.125894 7.68451C0.207686 7.79601 0.322907 7.87852 0.454808 7.92004C2.34481 8.48004 4.80481 9.27004 4.80481 9.27004C4.80481 9.27004 6.00481 12.75 6.56481 14.52C6.5996 14.6309 6.66184 14.7312 6.74575 14.8117C6.82967 14.8921 6.93253 14.95 7.04481 14.98C7.1563 15.0099 7.27354 15.0108 7.38551 14.9829C7.49748 14.9549 7.60047 14.8988 7.68481 14.82L10.1448 12.49C10.1448 12.49 13.0248 14.57 14.6348 15.72ZM5.88481 8.83004L7.22481 13.23L7.56481 10.44L15.6648 3.14004C15.7007 3.09831 15.7205 3.04509 15.7205 2.99004C15.7205 2.935 15.7007 2.88177 15.6648 2.84004C15.6231 2.80414 15.5699 2.7844 15.5148 2.7844C15.4598 2.7844 15.4065 2.80414 15.3648 2.84004L5.88481 8.83004Z" fill="white"/>
</svg>
