<svg width="18" height="17" viewBox="0 0 18 17" fill="none" xmlns="http://www.w3.org/2000/svg">
<path d="M17.6686 2.49058C17.0247 2.80904 16.3327 3.02351 15.6065 3.12019C16.348 2.62544 16.9175 1.84147 17.1851 0.90721C16.4917 1.3654 15.7231 1.69849 14.905 1.87803C14.2509 1.10056 13.3169 0.614746 12.2844 0.614746C9.96632 0.614746 8.26298 3.02433 8.78652 5.52571C5.80349 5.35917 3.15806 3.76686 1.3869 1.34672C0.446271 3.14456 0.899086 5.49646 2.49743 6.68744C1.90972 6.66632 1.35555 6.48678 0.872107 6.187C0.832731 8.04009 2.02493 9.77375 3.7516 10.1596C3.24629 10.3124 2.69285 10.3481 2.12993 10.2279C2.58639 11.8169 3.91202 12.973 5.48411 13.0055C3.97473 14.324 2.07305 14.913 0.168457 14.6628C1.75732 15.7977 3.64514 16.4598 5.67224 16.4598C12.3383 16.4598 16.1045 10.1873 15.877 4.56139C16.5784 3.99677 17.1873 3.29242 17.6686 2.49058Z" fill="white"/>
</svg>
